<svg xmlns="http://www.w3.org/2000/svg" width="32" height="32" viewBox="0 0 32 32" fill="none">
  <path d="M16,1.3 A14.7,14.7,0,0,1,27.3,8.4" stroke="#0ea5c8" stroke-width="3" stroke-linecap="round"/>
  <path d="M29.5,14 A14.7,14.7,0,0,1,22.5,28" stroke="#22d3ee" stroke-width="3" stroke-linecap="round"/>
  <path d="M16,30.7 A14.7,14.7,0,0,1,2.7,16" stroke="#0ea5c8" stroke-width="3" stroke-linecap="round"/>
  <path d="M4.2,9 A14.7,14.7,0,0,1,12,2.1" stroke="#1d6fa4" stroke-width="3" stroke-linecap="round"/>
  <path d="M16,5.5 A10.5,10.5,0,0,1,24.8,12" stroke="#1d6fa4" stroke-width="2.7" stroke-linecap="round"/>
  <path d="M26,18 A10.5,10.5,0,0,1,16,26.5" stroke="#0ea5c8" stroke-width="2.7" stroke-linecap="round"/>
  <path d="M8,21 A10.5,10.5,0,0,1,7.2,14" stroke="#22d3ee" stroke-width="2.7" stroke-linecap="round"/>
  <path d="M16,9.5 A6.5,6.5,0,0,1,21.5,14" stroke="#22c55e" stroke-width="2.5" stroke-linecap="round"/>
  <path d="M22,18 A6.5,6.5,0,0,1,14,22.4" stroke="#84cc16" stroke-width="2.5" stroke-linecap="round"/>
  <path d="M10.5,18 A6.5,6.5,0,0,1,11,11" stroke="#22c55e" stroke-width="2.5" stroke-linecap="round"/>
  <circle cx="16" cy="16" r="2.8" fill="#1d6fa4"/>
  <circle cx="16" cy="16" r="1.4" fill="#22d3ee" opacity="0.8"/>
</svg>
